<?xml version="1.0" encoding="UTF-8"?><svg id="a" xmlns="http://www.w3.org/2000/svg" viewBox="460 455 1010 175"><defs><style>.b{fill:#fff;}</style></defs><g><g><g><path class="b" d="M1150.75,468.11l-.85-.73-38.28,12.72-5.82,18.9c15.27,6.18,24.96,11.63,29.44,21.68h-56.28v12.33h54.39l3.36-10.75c.6-1.7,.84-3.4,.84-4.97,0-11.75-12.84-20.84-28.23-26.53l37.8-11.99,3.64-10.66Z"/><polygon class="b" points="1222.55 473.8 1213.7 467.62 1207.52 476.34 1216.61 482.64 1222.55 473.8"/><path class="b" d="M1240.24,521.66l-4,11.35h-17.57l-1.94-7.51c-2.06,4.97-4.48,7.51-10.05,7.51h-11.51l-2.55-8.12c-2.18,4.97-4.36,8.12-9.46,8.12h-23.8l.94-12.32h31.7l5.69-11.63,2.18,.49-4.12,9.93c-.12,.36-.37,.84-.49,1.21h21.08l4.85-12.48,1.94,.61-4,11.87h20.11l-8.73-11.99,4.12-12.24,1.22,.12c5.81,8.97,7.02,16.6,4.36,25.08Z"/><polygon class="b" points="1215.4 490.15 1224.12 496.21 1230.18 487.25 1221.22 481.07 1216.98 487 1208.37 481.07 1202.19 489.91 1211.28 496.21 1215.4 490.15"/></g><path class="b" d="M844.06,533.1h.67l3.38-10.47c1.59-5.51,2.34-10.57,2.34-15.89v-46.2l-6.38,10.78v61.79Z"/><path class="b" d="M837.78,511.08c0-3.03-.32-5.97-.94-8.76-.46-2.03-1.07-3.95-1.83-5.75-.76-1.81-1.68-3.51-2.74-5.08l-3.51,8.5c-.36,.87-.25,1.85,.29,2.63l8.01,11.37-.04,.16c-2.79,10.02-17.07,19.94-27.66,26.55v.7h15.92c4.71-5.39,12.49-16.38,12.49-30.31Z"/><path class="b" d="M959.31,533.1l2.8-8.14,.22,.58c.54,1.41,1.3,2.65,2.25,3.69,.65,.72,1.4,1.35,2.23,1.87l.22,.14-1.58,1.88,.55,.49,1.85-1.93,.15,.07c1.63,.78,3.47,1.23,5.49,1.33h48.02l2.86-11.94c2.48-10.02-.35-12.95-9.64-20.72-3.08-2.46-6.04-3.61-9.32-3.61-5.21,0-10.73,3.24-16.87,9.9l-12.69,13.96h-1.11c-4.14,0-7.05-1.69-8.91-5.17l-.04-.08,2.73-10.42-1.44-.1c-1.16,3.74-4.72,15.53-4.74,15.6l-.05,.16h-49.97c-3.3-.03-5.78-.03-7.38,0-2.22,.04-3.97,.08-5.47,.1-4.45,.09-6.69,.13-12.23,.19-6.37,.05-12.02-4.06-14.38-10.48-.68-1.87-1.35-3.77-1.99-5.62-.41-1.18-.82-2.35-1.23-3.53-.81-2.28-1.63-4.55-2.49-6.96-.38-1.06-.77-2.15-1.18-3.28-.31,.64-.61,1.25-.9,1.84-.84,1.7-1.56,3.16-2.12,4.71-.4,1.11-.41,2.55-.02,3.49,.88,2.16,1.88,4.31,2.86,6.4,.68,1.46,1.39,2.97,2.05,4.47,.28,.63,.38,1.85-.06,2.39-2.34,2.85-5.62,6.34-10.35,8.12-.72,.27-1.54,.83-1.59,1.2-.35,3.01-.59,6.02-.84,9.21-.07,.95-.15,1.91-.23,2.88,10.44-2.07,16.2-7.85,17.6-17.63l.08-.59,.33,.5c.49,.73,.95,1.5,1.4,2.24,.98,1.61,1.99,3.27,3.24,4.66,3.9,4.33,9.21,6.71,16.7,7.49,5.04,.52,10.23,.73,15.41,.62h49.77Zm27.26-21.77c4.17-4.29,8.23-6.38,12.41-6.38,3.66,0,7.32,1.57,11.88,5.1l13.52,10.63h-46.89l9.09-9.35Z"/><path class="b" d="M794.1,533.1h16.32c.83-4.49,2.37-10.41,2.37-16.2,0-9.93-4.38-16.32-12.89-20.81l-6.74-3.67-.83,.35-2.01,6.27c-4.97,4.97-9.11,11.12-9.11,20.58,0,8.16,3.19,13.48,12.89,13.48Zm-11.35-17.62c0-4.14,4.61-8.63,8.63-12.06,12.77,4.97,18.57,10.17,20.1,18.09h-15.14c-11.12,0-13.6-3.07-13.6-6.03Z"/><polygon class="b" points="794.33 482.22 802.61 487.9 808.29 479.5 799.89 473.83 795.99 479.38 787.83 473.83 782.03 481.99 790.55 487.9 794.33 482.22"/><path class="b" d="M748,532.7h.66l3.36-10.41c1.59-5.48,2.33-10.51,2.33-15.8v-45.95l-6.35,10.72v61.45Z"/><path class="b" d="M707.2,529.69l-.04,.16c-2.77,9.97-16.98,19.83-27.51,26.41v.7h15.84c4-4.57,10.22-13.21,11.95-24.25h30.96v-72.17l-6.35,10.72v49.1h-24.64c-.12-.76-.26-1.52-.43-2.26-.45-2.01-1.06-3.92-1.82-5.72-.76-1.8-1.67-3.49-2.73-5.05l-3.49,8.45c-.36,.87-.25,1.84,.29,2.61l7.96,11.3Z"/><path class="b" d="M644.41,532.7h37.19l2.47-12.1h.04c.08-1,.12-2.02,.12-3.06,0-3.01-.32-5.94-.93-8.71-.45-2.01-1.06-3.92-1.82-5.72-.76-1.8-1.67-3.49-2.73-5.05l-3.49,8.45c-.36,.87-.25,1.84,.29,2.61l7.91,11.22h-32.75v-59.82l-6.35,10.72v61.45h.03Z"/><polygon class="b" points="671.13 555.45 677.22 546.45 668.21 540.36 664.03 546.32 655.27 540.36 649.05 549.11 658.19 555.45 662.25 549.36 671.13 555.45"/><polygon class="b" points="531.98 540.36 525.76 549.11 534.9 555.46 538.96 549.37 547.84 555.46 553.93 546.45 544.92 540.36 540.74 546.32 531.98 540.36"/><polygon class="b" points="485.78 481.84 494.66 487.93 500.75 478.92 491.74 472.83 487.56 478.8 478.8 472.83 472.58 481.59 481.72 487.93 485.78 481.84"/><path class="b" d="M496.08,498.56l-13.17,7.92-2.87,1.73c-.71,.43-1.24,1.09-1.51,1.87l-.02,.05-2.58,7.61-1.65,4.88,7.15,2.86,7.22,2.89c1.25,.5,2.62,.23,3.58-.61,.33-.28,.61-.64,.82-1.05l3.03-5.95v12.02h38l3.89-6.42h0l1.01-1.65,2.22,8.07h29.05l2.78-8.09,.22,.58c.54,1.4,1.29,2.63,2.24,3.67,.65,.71,1.4,1.34,2.22,1.86l.22,.14-1.57,1.87,.55,.49,1.84-1.92,.15,.07c1.62,.78,3.45,1.22,5.46,1.32h47.76l2.85-11.88c2.46-9.97-.34-12.88-9.59-20.61-3.06-2.45-6.01-3.59-9.27-3.59-5.19,0-10.67,3.22-16.78,9.85l-12.62,13.88h-1.1c-4.12,0-7.02-1.68-8.86-5.14l-.04-.08,2.72-10.36-1.43-.1c-1.15,3.72-4.7,15.45-4.72,15.52l-.05,.16h-32.62c.84-2.58,1.39-5.18,1.64-7.73,.18-1.88,.19-3.71,.05-5.48-.15-1.78-.46-3.5-.93-5.16l-5.43,6.34c-.56,.65-.74,1.53-.49,2.35l2.96,9.67h-35.95v-35.17l-.59,.99-5.76,9.73v2.59Zm101.27,12.56c4.15-4.27,8.19-6.35,12.34-6.35,3.64,0,7.28,1.56,11.81,5.07l13.45,10.58h-46.63l9.04-9.3Zm-105.27,5.04l-6.18-2.56-1.09-.45,10.13-7.82,1.13-3.4v13.73c-1.14,.84-2.66,1.05-4,.49Z"/><rect class="b" x="585.9" y="474.89" width="10.98" height="10.98" transform="translate(-138.64 698.48) rotate(-55.72)"/><path class="b" d="M1168.44,520.66v12.35h-10.13c-1.74,11.04-7.95,19.68-11.95,24.25h-15.84v-.7c10.53-6.58,24.74-16.44,27.51-26.41l.05-.15-7.96-11.31c-.54-.76-.65-1.74-.29-2.61l3.49-8.45c1.05,1.57,1.96,3.25,2.72,5.05,.75,1.8,1.36,3.71,1.82,5.72,.17,.75,.31,1.5,.43,2.26h10.16Z"/><path class="b" d="M1080.16,485.5l-.59,1-5.76,9.72v2.59l-13.18,7.92-2.87,1.73c-.71,.42-1.24,1.09-1.51,1.87l-.02,.05-2.58,7.61-1.65,4.88,7.15,2.85,7.22,2.89c1.25,.49,2.63,.23,3.58-.61,.33-.28,.61-.64,.82-1.05l3.03-5.94v12.02h29.09v-12.35h-22.74v-35.17Zm-6.35,30.42c-1.14,.84-2.66,1.05-4.01,.49l-6.18-2.55-1.08-.45,10.13-7.83,1.14-3.4v13.73Z"/><polygon class="b" points="1061.66 481.84 1070.54 487.93 1076.63 478.92 1067.62 472.83 1063.43 478.8 1054.68 472.83 1048.46 481.59 1057.6 487.93 1061.66 481.84"/><g><path class="b" d="M492.08,597.89c-2.03-1.22-4.07-2.42-6.12-3.61-2.05-1.18-3.79-2.55-5.22-4.1-1.43-1.55-2.15-3.24-2.15-5.07,0-2.53,1.08-4.31,3.23-5.35,3.98,0,8.77,1.2,14.36,3.61l.62-4.23c-4.31-1.28-7.88-1.93-10.7-1.93-4.31,0-7.55,1.06-9.73,3.17-2.18,2.11-3.26,4.39-3.26,6.84s.68,4.53,2.05,6.25c1.37,1.72,3.03,3.14,4.97,4.26,1.95,1.12,3.9,2.21,5.84,3.26,1.95,1.06,3.61,2.3,4.97,3.73,1.37,1.43,2.05,3.02,2.05,4.76,0,2.57-.83,4.58-2.49,6.03-1.66,1.45-3.97,2.18-6.93,2.18s-6.56-1.06-10.79-3.17v2.92c4.19,1.62,8.41,2.42,12.68,2.42s7.66-1.08,10.17-3.23c2.51-2.15,3.76-4.93,3.76-8.33,0-2.15-.72-4.12-2.15-5.91-1.43-1.78-3.16-3.28-5.19-4.51Z"/><path class="b" d="M522.18,576.97l-18.47,42.16h3.36l4.6-11.19h18.47l4.66,11.19h6.78l-18.47-42.16h-.93Zm-9.58,28.6l8.33-20.15,8.21,20.15h-16.54Z"/><path class="b" d="M578.32,585.12c-1.58-1.62-3.42-2.96-5.53-4.04-3.94-2.07-8.35-3.11-13.24-3.11h-11.75v41.16h12.93c9,0,15.5-2.78,19.52-8.33,2.2-3.03,3.3-6.74,3.3-11.13,0-3.07-.48-5.85-1.43-8.36-.95-2.51-2.22-4.57-3.79-6.19Zm-6.16,27.23c-3.19,3.11-7.42,4.66-12.68,4.66-2.4,0-4.27-.19-5.6-.56v-34.94c2.69-.87,5.85-1.31,9.45-1.31,4.02,1.08,7.3,3.26,9.82,6.56,2.53,3.3,3.79,7.27,3.79,11.91,0,6.01-1.6,10.57-4.79,13.68Z"/><path class="b" d="M605.31,576.97l-18.47,42.16h3.36l4.6-11.19h18.47l4.66,11.19h6.78l-18.47-42.16h-.93Zm-9.58,28.6l8.33-20.15,8.21,20.15h-16.54Z"/><path class="b" d="M655.46,595.35c2.13-1.76,3.2-4.17,3.2-7.21s-1.34-5.5-4.01-7.37c-2.67-1.87-6.1-2.8-10.29-2.8h-13.43v41.16h6.09v-19.65h4.79l14.43,20.52,7.21-.87-16.66-20.15c3.65-.66,6.54-1.87,8.67-3.64Zm-14.46,2.27h-3.98v-16.29c2.74-.7,5.51-1.06,8.33-1.06,3.11,.83,5.14,2.55,6.09,5.16,.5,1.24,.75,2.36,.75,3.36,0,5.89-3.73,8.83-11.19,8.83Z"/><path class="b" d="M684.09,576.97l-18.47,42.16h3.36l4.6-11.19h18.47l4.66,11.19h6.78l-18.47-42.16h-.93Zm-9.58,28.6l8.33-20.15,8.21,20.15h-16.54Z"/><path class="b" d="M743.23,597.89c-2.03-1.22-4.07-2.42-6.12-3.61-2.05-1.18-3.79-2.55-5.22-4.1-1.43-1.55-2.15-3.24-2.15-5.07,0-2.53,1.08-4.31,3.23-5.35,3.98,0,8.77,1.2,14.36,3.61l.62-4.23c-4.31-1.28-7.88-1.93-10.69-1.93-4.31,0-7.55,1.06-9.73,3.17-2.18,2.11-3.26,4.39-3.26,6.84s.68,4.53,2.05,6.25c1.37,1.72,3.03,3.14,4.97,4.26,1.95,1.12,3.9,2.21,5.84,3.26,1.95,1.06,3.61,2.3,4.97,3.73,1.37,1.43,2.05,3.02,2.05,4.76,0,2.57-.83,4.58-2.49,6.03-1.66,1.45-3.97,2.18-6.93,2.18s-6.56-1.06-10.79-3.17v2.92c4.19,1.62,8.41,2.42,12.68,2.42s7.66-1.08,10.17-3.23c2.51-2.15,3.76-4.93,3.76-8.33,0-2.15-.72-4.12-2.15-5.91-1.43-1.78-3.16-3.28-5.19-4.51Z"/><path class="b" d="M783.49,580.83c-2.67-1.91-6.1-2.86-10.29-2.86h-13.37v41.16h6.03v-18.34h5.35c5.02,0,8.99-1.03,11.91-3.08,2.92-2.05,4.38-5.07,4.38-9.05,0-3.32-1.34-5.93-4.01-7.83Zm-4.07,14.18c-.62,1.16-1.63,2.11-3.02,2.86-1.39,.75-3.06,1.12-5.01,1.12h-5.53v-17.72c2.57-.7,5.35-1.06,8.33-1.06,3.11,.83,5.16,2.61,6.16,5.35,.5,1.33,.75,2.47,.75,3.42,0,1.95-.56,3.96-1.68,6.03Z"/><path class="b" d="M812.49,577.22c-4.27,0-8.23,1-11.88,2.98-1.99,1.12-3.74,2.51-5.25,4.17-1.51,1.66-2.74,3.8-3.67,6.44-.93,2.63-1.4,5.59-1.4,8.86,0,6.3,1.75,11.24,5.25,14.83,3.5,3.59,7.93,5.38,13.28,5.38s10.24-1.62,14.67-4.85c2.28-1.66,4.12-4.01,5.53-7.06,1.41-3.05,2.11-6.6,2.11-10.66,0-6.3-1.76-11.22-5.29-14.77-3.52-3.54-7.98-5.32-13.37-5.32Zm8.89,34.07c-1.04,1.95-2.49,3.52-4.35,4.73-1.87,1.2-3.99,1.8-6.37,1.8s-4.49-.51-6.31-1.52c-1.82-1.02-3.28-2.43-4.35-4.26-2.07-3.56-3.11-8-3.11-13.31,0-4.35,1.04-8.25,3.11-11.69,2.07-3.44,5.12-5.87,9.14-7.27,5.64,0,9.68,1.89,12.13,5.66,2.2,3.36,3.3,7.79,3.3,13.31,0,4.48-1.06,8.66-3.17,12.56Z"/><path class="b" d="M863.39,595.35c2.13-1.76,3.2-4.17,3.2-7.21s-1.34-5.5-4.01-7.37c-2.67-1.87-6.1-2.8-10.29-2.8h-13.43v41.16h6.09v-19.65h4.79l14.43,20.52,7.21-.87-16.66-20.15c3.65-.66,6.54-1.87,8.67-3.64Zm-14.46,2.27h-3.98v-16.29c2.74-.7,5.51-1.06,8.33-1.06,3.11,.83,5.14,2.55,6.09,5.16,.5,1.24,.75,2.36,.75,3.36,0,5.89-3.73,8.83-11.19,8.83Z"/><path class="b" d="M873.93,582.38l8.39-1.93c1.41,0,2.82,.17,4.23,.5v38.18h6.03v-38.18c1.41-.33,2.82-.5,4.23-.5l8.46,1.93,.31-4.42h-32.02l.37,4.42Z"/><path class="b" d="M934.96,602.4c-1.43-1.78-3.16-3.28-5.19-4.51-2.03-1.22-4.07-2.42-6.12-3.61-2.05-1.18-3.79-2.55-5.22-4.1-1.43-1.55-2.15-3.24-2.15-5.07,0-2.53,1.08-4.31,3.23-5.35,3.98,0,8.77,1.2,14.36,3.61l.62-4.23c-4.31-1.28-7.88-1.93-10.7-1.93-4.31,0-7.55,1.06-9.73,3.17-2.18,2.11-3.26,4.39-3.26,6.84s.68,4.53,2.05,6.25c1.37,1.72,3.03,3.14,4.97,4.26,1.95,1.12,3.9,2.21,5.84,3.26,1.95,1.06,3.61,2.3,4.97,3.73,1.37,1.43,2.05,3.02,2.05,4.76,0,2.57-.83,4.58-2.49,6.03-1.66,1.45-3.97,2.18-6.93,2.18s-6.56-1.06-10.79-3.17v2.92c4.19,1.62,8.41,2.42,12.68,2.42s7.66-1.08,10.17-3.23c2.51-2.15,3.76-4.93,3.76-8.33,0-2.15-.72-4.12-2.15-5.91Z"/><g><path class="b" d="M980.4,619.86c-6.42,0-11.83-1.74-16.22-5.22-4.39-3.48-6.59-8.47-6.59-14.97,0-3.81,.72-7.21,2.17-10.19,1.45-2.98,3.35-5.32,5.72-7.02,4.76-3.48,10.11-5.22,16.03-5.22,3.44,0,7.02,.62,10.75,1.86l-.62,4.22c-1.95-.83-3.46-1.45-4.54-1.86-3.11-1.12-6.23-1.68-9.38-1.68-4.35,.99-7.69,3.15-10.03,6.46-2.34,3.31-3.51,7.46-3.51,12.43,0,6.09,1.59,10.78,4.78,14.07,3.19,3.29,7.39,4.94,12.61,4.94s9.11-1.12,11.68-3.35v3.42c-3.56,1.41-7.85,2.11-12.86,2.11Z"/><path class="b" d="M1019.42,577.24c5.38,0,9.84,1.77,13.36,5.31,3.52,3.54,5.28,8.46,5.28,14.76,0,4.06-.7,7.61-2.11,10.65-1.41,3.04-3.25,5.4-5.53,7.05-4.43,3.23-9.32,4.85-14.66,4.85s-9.76-1.79-13.26-5.37c-3.5-3.58-5.25-8.52-5.25-14.82,0-3.27,.47-6.22,1.4-8.85,.93-2.63,2.15-4.77,3.67-6.43,1.51-1.66,3.26-3.04,5.25-4.16,3.64-1.99,7.6-2.98,11.87-2.98Zm-8.14,39.05c1.82,1.02,3.92,1.52,6.31,1.52s4.5-.6,6.37-1.8c1.86-1.2,3.31-2.77,4.35-4.72,2.11-3.89,3.17-8.08,3.17-12.55,0-5.51-1.1-9.94-3.29-13.3-2.44-3.77-6.48-5.65-12.12-5.65-4.02,1.41-7.06,3.83-9.13,7.27-2.07,3.44-3.11,7.33-3.11,11.68,0,5.3,1.03,9.73,3.11,13.3,1.08,1.82,2.53,3.24,4.35,4.26Z"/><path class="b" d="M1067.69,609.36l13.73-31.37h6.34l2.3,41.13h-6.34l-1.68-35.35h-.25l-15.66,35.35h-.87l-15.35-33.92h-.25l-1.68,33.92h-2.73l2.3-41.13h5.78l14.35,31.37Z"/><path class="b" d="M1128.64,588.67c0,3.98-1.46,6.99-4.38,9.04-2.92,2.05-6.89,3.08-11.9,3.08h-5.34v18.33h-6.03v-41.13h13.36c4.18,0,7.61,.95,10.28,2.86,2.67,1.91,4.01,4.52,4.01,7.83Zm-21.62,10.31h5.53c1.95,0,3.61-.37,5-1.12,1.39-.75,2.39-1.7,3.01-2.86,1.12-2.07,1.68-4.08,1.68-6.03,0-.95-.25-2.09-.75-3.42-.99-2.73-3.04-4.51-6.15-5.34-2.98,0-5.76,.35-8.33,1.06v17.71Z"/><path class="b" d="M1127.15,619.11l18.45-42.12h.93l18.45,42.12h-6.77l-4.66-11.18h-18.45l-4.6,11.18h-3.36Zm8.88-13.54h16.53l-8.2-20.13-8.33,20.13Z"/><path class="b" d="M1202.45,619.8h-1.06l-27.21-34.05h-.25v33.36h-2.73v-41.13h4.6l23.67,29.88h.25v-29.88h2.73v41.81Z"/><path class="b" d="M1229.35,619.11h-6.03v-15.28l-14.04-25.85h6.77l11.49,23.61,10.75-23.61h3.11l-12.05,25.53v15.59Z"/></g></g></g><g><path class="b" d="M1441.85,537.58v3.02c-35.32,2.62-63.16,32.11-63.16,68.1,0,1.32,.04,2.63,.11,3.93,0,.12,.01,.25,.02,.37h-2.79s0-.04,0-.05c.19-2.07,.29-4.17,.29-6.29,0-37.72-30.58-68.3-68.29-68.3-4.01,0-7.93,.35-11.75,1.02v-2.4c35.79-2.14,64.16-31.84,64.16-68.17,0-.13,0-.25,0-.38h2.73c-.01,.55-.02,1.09-.02,1.64,0,37.72,30.58,68.29,68.3,68.29,3.54,0,7.01-.27,10.41-.78Z"/><path class="b" d="M1447.42,514.3c-8.81-27.13-31.47-48.01-59.65-54.3,7.82,27.73,30.93,49.05,59.65,54.3Z"/><path class="b" d="M1290.6,557.72c7.04,30.75,31.49,54.85,62.43,61.4-5.77-31.44-30.81-56.14-62.43-61.4Z"/><path class="b" d="M1404.16,613.37c19.63-9.1,35.02-25.78,42.42-46.28-19.98,8.58-35.56,25.45-42.42,46.28Z"/><path class="b" d="M1335.46,465.7c-18.64,8.74-33.43,24.33-41.12,43.54,18.96-8.27,33.91-24.03,41.12-43.54Z"/></g></g></svg>