<?xml version="1.0" encoding="UTF-8"?><svg id="a" xmlns="http://www.w3.org/2000/svg" viewBox="595 448 730 190"><defs><style>.b{fill:#fff;}.c{fill:#101132;}.d{fill:#2a1ee8;}</style></defs><rect class="c" x="595" y="448" width="730" height="190"/><g><g><path class="b" d="M959.16,528.2h.63l3.19-9.89c1.51-5.21,2.21-9.98,2.21-15.01v-43.65l-6.03,10.18v58.37Z"/><path class="b" d="M953.23,507.4c0-2.86-.3-5.64-.88-8.28-.43-1.91-1.01-3.73-1.73-5.44-.72-1.71-1.59-3.31-2.59-4.79l-3.31,8.03c-.34,.82-.23,1.75,.28,2.48l7.56,10.74-.04,.15c-2.63,9.47-16.13,18.83-26.13,25.09v.66h15.04c4.45-5.09,11.8-15.48,11.8-28.64Z"/><path class="b" d="M1068.04,528.2l2.64-7.69,.21,.55c.51,1.33,1.23,2.5,2.12,3.49,.62,.68,1.33,1.27,2.11,1.77l.21,.13-1.49,1.78,.52,.47,1.74-1.82,.14,.07c1.54,.74,3.28,1.16,5.19,1.25h45.37l2.7-11.28c2.34-9.47-.33-12.24-9.11-19.58-2.91-2.33-5.71-3.41-8.81-3.41-4.93,0-10.14,3.06-15.94,9.35l-11.99,13.19h-1.05c-3.91,0-6.66-1.6-8.42-4.88l-.04-.08,2.58-9.84-1.36-.09c-1.1,3.54-4.46,14.67-4.48,14.74l-.04,.15h-47.21c-3.12-.03-5.46-.03-6.97,0-2.1,.04-3.75,.07-5.17,.1-4.21,.08-6.32,.13-11.55,.18-6.02,.05-11.35-3.83-13.58-9.9-.65-1.76-1.27-3.57-1.88-5.31-.39-1.11-.77-2.22-1.17-3.33-.77-2.15-1.54-4.3-2.35-6.57-.36-1-.73-2.04-1.11-3.1-.29,.6-.57,1.18-.85,1.74-.79,1.6-1.48,2.99-2,4.45-.37,1.05-.38,2.41-.02,3.3,.83,2.04,1.78,4.08,2.7,6.04,.65,1.38,1.31,2.81,1.93,4.23,.26,.6,.36,1.75-.06,2.26-2.21,2.69-5.31,5.99-9.77,7.67-.68,.26-1.46,.78-1.5,1.13-.33,2.85-.56,5.69-.79,8.7-.07,.9-.14,1.8-.22,2.72,9.86-1.96,15.3-7.41,16.63-16.66l.08-.56,.31,.47c.46,.69,.9,1.42,1.32,2.12,.92,1.52,1.88,3.09,3.06,4.41,3.68,4.09,8.7,6.34,15.78,7.07,4.76,.49,9.66,.69,14.56,.58h47.01Zm25.75-20.56c3.94-4.06,7.78-6.03,11.72-6.03,3.46,0,6.92,1.48,11.22,4.81l12.77,10.05h-44.3l8.58-8.83Z"/><path class="b" d="M911.96,528.2h15.42c.78-4.25,2.23-9.83,2.23-15.31,0-9.38-4.13-15.42-12.18-19.66l-6.37-3.46-.78,.34-1.9,5.92c-4.69,4.69-8.6,10.5-8.6,19.44,0,7.71,3.02,12.74,12.18,12.74Zm-10.72-16.65c0-3.91,4.36-8.16,8.16-11.4,12.07,4.69,17.54,9.61,18.99,17.09h-14.3c-10.5,0-12.85-2.9-12.85-5.7Z"/><polygon class="b" points="912.18 480.14 920 485.5 925.36 477.57 917.43 472.2 913.75 477.46 906.04 472.2 900.56 479.91 908.61 485.5 912.18 480.14"/><path class="b" d="M868.41,527.82h.62l3.17-9.84c1.5-5.18,2.2-9.93,2.2-14.93v-43.41l-6,10.13v58.05Z"/><path class="b" d="M829.86,524.98l-.04,.15c-2.62,9.42-16.04,18.73-25.99,24.95v.66h14.96c3.78-4.32,9.65-12.48,11.29-22.91h29.25v-68.17l-6,10.13v46.38h-23.28c-.11-.72-.25-1.43-.4-2.13-.43-1.9-1-3.71-1.72-5.41-.72-1.7-1.58-3.29-2.57-4.77l-3.29,7.98c-.34,.82-.23,1.74,.28,2.47l7.52,10.68Z"/><path class="b" d="M770.55,527.82h35.14l2.33-11.43h.04c.08-.95,.12-1.91,.12-2.89,0-2.84-.3-5.61-.88-8.23-.43-1.9-1-3.71-1.72-5.41-.72-1.7-1.58-3.29-2.57-4.77l-3.29,7.98c-.34,.82-.23,1.74,.28,2.47l7.47,10.6h-30.93v-56.51l-6,10.13v58.05h.03Z"/><polygon class="b" points="795.79 549.32 801.55 540.81 793.04 535.05 789.08 540.69 780.81 535.05 774.94 543.32 783.57 549.32 787.4 543.56 795.79 549.32"/><polygon class="b" points="664.34 535.06 658.47 543.33 667.1 549.32 670.93 543.57 679.32 549.32 685.07 540.81 676.56 535.06 672.61 540.69 664.34 535.06"/><polygon class="b" points="620.69 479.78 629.08 485.53 634.84 477.02 626.33 471.27 622.37 476.9 614.1 471.27 608.23 479.54 616.86 485.53 620.69 479.78"/><path class="b" d="M630.42,495.57l-12.45,7.48-2.71,1.63c-.67,.4-1.17,1.03-1.42,1.77l-.02,.04-2.44,7.19-1.56,4.61,6.75,2.7,6.82,2.73c1.18,.47,2.48,.21,3.38-.58,.31-.27,.58-.6,.78-.99l2.86-5.62v11.36h35.9l3.67-6.06h0l.95-1.56,2.1,7.62h27.44l2.63-7.64,.21,.55c.51,1.32,1.22,2.49,2.11,3.47,.61,.67,1.32,1.27,2.1,1.76l.21,.13-1.49,1.77,.52,.46,1.73-1.81,.14,.07c1.53,.73,3.26,1.15,5.16,1.25h45.12l2.69-11.22c2.33-9.41-.33-12.17-9.06-19.47-2.89-2.31-5.68-3.39-8.76-3.39-4.9,0-10.08,3.04-15.85,9.3l-11.92,13.11h-1.04c-3.89,0-6.63-1.59-8.37-4.86l-.04-.07,2.57-9.79-1.35-.09c-1.09,3.52-4.44,14.59-4.46,14.66l-.04,.15h-30.82c.79-2.44,1.31-4.89,1.55-7.3,.17-1.77,.18-3.5,.04-5.18-.14-1.68-.43-3.31-.88-4.87l-5.13,5.99c-.52,.62-.7,1.45-.46,2.22l2.8,9.14h-33.96v-33.22l-.55,.94-5.44,9.19v2.45Zm95.67,11.87c3.92-4.03,7.73-5.99,11.66-5.99,3.44,0,6.88,1.48,11.16,4.79l12.7,9.99h-44.05l8.54-8.78Zm-99.45,4.76l-5.84-2.41-1.03-.42,9.57-7.39,1.07-3.21v12.97c-1.08,.8-2.51,.99-3.78,.46Z"/><rect class="b" x="715.28" y="473.21" width="10.38" height="10.38" transform="translate(-80.63 804.26) rotate(-55.72)"/><path class="b" d="M630.98,595.55c-2.28-1.37-4.57-2.72-6.87-4.05-2.3-1.33-4.26-2.86-5.86-4.6-1.6-1.74-2.41-3.64-2.41-5.69,0-2.84,1.21-4.84,3.63-6,4.47,0,9.84,1.35,16.12,4.05l.7-4.74c-4.84-1.44-8.84-2.16-12-2.16-4.84,0-8.48,1.19-10.92,3.56-2.44,2.37-3.66,4.93-3.66,7.67s.77,5.08,2.3,7.01c1.54,1.93,3.39,3.52,5.58,4.78,2.19,1.26,4.37,2.48,6.56,3.66,2.19,1.19,4.05,2.58,5.58,4.19,1.54,1.6,2.3,3.38,2.3,5.34,0,2.88-.93,5.14-2.79,6.77-1.86,1.63-4.45,2.44-7.78,2.44s-7.36-1.19-12.1-3.56v3.28c4.7,1.81,9.44,2.72,14.23,2.72s8.59-1.21,11.41-3.63c2.81-2.42,4.22-5.53,4.22-9.35,0-2.42-.8-4.63-2.41-6.63-1.6-2-3.55-3.69-5.83-5.06Z"/><path class="b" d="M664.75,572.07l-20.72,47.3h3.77l5.16-12.56h20.72l5.23,12.56h7.6l-20.72-47.3h-1.05Zm-10.74,32.09l9.35-22.6,9.21,22.6h-18.56Z"/><path class="b" d="M727.75,581.21c-1.77-1.81-3.84-3.32-6.21-4.53-4.42-2.33-9.37-3.49-14.86-3.49h-13.19v46.19h14.51c10.09,0,17.4-3.12,21.91-9.35,2.46-3.39,3.7-7.56,3.7-12.49,0-3.44-.53-6.57-1.6-9.38-1.07-2.81-2.49-5.13-4.26-6.94Zm-6.91,30.56c-3.58,3.49-8.33,5.23-14.23,5.23-2.7,0-4.79-.21-6.28-.63v-39.21c3.02-.98,6.56-1.47,10.6-1.47,4.51,1.21,8.19,3.66,11.02,7.36,2.84,3.7,4.26,8.15,4.26,13.36,0,6.74-1.79,11.86-5.37,15.35Z"/><path class="b" d="M758.03,572.07l-20.72,47.3h3.77l5.16-12.56h20.72l5.23,12.56h7.6l-20.72-47.3h-1.05Zm-10.74,32.09l9.35-22.6,9.21,22.6h-18.56Z"/><path class="b" d="M814.3,592.69c2.39-1.98,3.59-4.67,3.59-8.09s-1.5-6.17-4.5-8.27c-3-2.09-6.85-3.14-11.55-3.14h-15.07v46.19h6.84v-22.05h5.37l16.19,23.02,8.09-.98-18.7-22.6c4.09-.74,7.34-2.1,9.73-4.08Zm-16.22,2.55h-4.47v-18.28c3.07-.79,6.19-1.19,9.35-1.19,3.49,.93,5.77,2.86,6.84,5.79,.56,1.4,.84,2.65,.84,3.77,0,6.61-4.19,9.91-12.56,9.91Z"/><path class="b" d="M846.43,572.07l-20.72,47.3h3.77l5.16-12.56h20.72l5.23,12.56h7.6l-20.72-47.3h-1.05Zm-10.74,32.09l9.35-22.6,9.21,22.6h-18.56Z"/><path class="b" d="M912.78,595.55c-2.28-1.37-4.57-2.72-6.87-4.05-2.3-1.33-4.26-2.86-5.86-4.6-1.6-1.74-2.41-3.64-2.41-5.69,0-2.84,1.21-4.84,3.63-6,4.47,0,9.84,1.35,16.12,4.05l.7-4.74c-4.84-1.44-8.84-2.16-12-2.16-4.84,0-8.48,1.19-10.92,3.56-2.44,2.37-3.66,4.93-3.66,7.67s.77,5.08,2.3,7.01c1.54,1.93,3.39,3.52,5.58,4.78,2.19,1.26,4.37,2.48,6.56,3.66,2.19,1.19,4.05,2.58,5.58,4.19,1.54,1.6,2.3,3.38,2.3,5.34,0,2.88-.93,5.14-2.79,6.77-1.86,1.63-4.45,2.44-7.78,2.44s-7.36-1.19-12.1-3.56v3.28c4.7,1.81,9.44,2.72,14.23,2.72s8.59-1.21,11.41-3.63c2.81-2.42,4.22-5.53,4.22-9.35,0-2.42-.8-4.63-2.41-6.63-1.6-2-3.55-3.69-5.83-5.06Z"/><path class="b" d="M957.95,576.4c-3-2.14-6.85-3.21-11.55-3.21h-15v46.19h6.77v-20.58h6c5.63,0,10.08-1.15,13.36-3.45,3.28-2.3,4.92-5.69,4.92-10.15,0-3.72-1.5-6.65-4.5-8.79Zm-4.57,15.91c-.7,1.3-1.83,2.37-3.38,3.21-1.56,.84-3.43,1.26-5.62,1.26h-6.21v-19.88c2.88-.79,6-1.19,9.35-1.19,3.49,.93,5.79,2.93,6.91,6,.56,1.49,.84,2.77,.84,3.84,0,2.19-.63,4.44-1.88,6.77Z"/><path class="b" d="M990.5,572.35c-4.79,0-9.23,1.12-13.33,3.35-2.23,1.26-4.2,2.81-5.9,4.67-1.7,1.86-3.07,4.27-4.12,7.22-1.05,2.95-1.57,6.27-1.57,9.94,0,7.07,1.96,12.62,5.9,16.64,3.93,4.02,8.9,6.03,14.9,6.03s11.49-1.81,16.46-5.44c2.56-1.86,4.63-4.5,6.21-7.92,1.58-3.42,2.37-7.41,2.37-11.97,0-7.07-1.98-12.59-5.93-16.57-3.95-3.98-8.95-5.97-15-5.97Zm9.98,38.23c-1.16,2.19-2.79,3.95-4.88,5.3-2.09,1.35-4.48,2.02-7.15,2.02s-5.04-.57-7.08-1.71c-2.05-1.14-3.67-2.73-4.88-4.78-2.33-4-3.49-8.98-3.49-14.93,0-4.88,1.16-9.25,3.49-13.12,2.33-3.86,5.74-6.58,10.26-8.16,6.33,0,10.86,2.12,13.6,6.35,2.46,3.77,3.7,8.74,3.7,14.93,0,5.02-1.19,9.72-3.56,14.09Z"/><path class="b" d="M1047.6,592.69c2.39-1.98,3.59-4.67,3.59-8.09s-1.5-6.17-4.5-8.27c-3-2.09-6.85-3.14-11.55-3.14h-15.07v46.19h6.84v-22.05h5.37l16.19,23.02,8.09-.98-18.7-22.6c4.09-.74,7.34-2.1,9.73-4.08Zm-16.22,2.55h-4.47v-18.28c3.07-.79,6.19-1.19,9.35-1.19,3.49,.93,5.77,2.86,6.84,5.79,.56,1.4,.84,2.65,.84,3.77,0,6.61-4.19,9.91-12.56,9.91Z"/><path class="b" d="M1059.43,578.14l9.42-2.16c1.58,0,3.16,.19,4.74,.56v42.84h6.77v-42.84c1.58-.37,3.16-.56,4.74-.56l9.49,2.16,.35-4.95h-35.93l.42,4.95Z"/><path class="b" d="M1127.9,600.61c-1.6-2-3.55-3.69-5.83-5.06-2.28-1.37-4.57-2.72-6.87-4.05-2.3-1.33-4.26-2.86-5.86-4.6-1.6-1.74-2.41-3.64-2.41-5.69,0-2.84,1.21-4.84,3.63-6,4.47,0,9.84,1.35,16.12,4.05l.7-4.74c-4.84-1.44-8.84-2.16-12-2.16-4.84,0-8.48,1.19-10.92,3.56-2.44,2.37-3.66,4.93-3.66,7.67s.77,5.08,2.3,7.01c1.54,1.93,3.39,3.52,5.58,4.78,2.19,1.26,4.37,2.48,6.56,3.66,2.19,1.19,4.05,2.58,5.58,4.19,1.54,1.6,2.3,3.38,2.3,5.34,0,2.88-.93,5.14-2.79,6.77-1.86,1.63-4.45,2.44-7.78,2.44s-7.36-1.19-12.1-3.56v3.28c4.7,1.81,9.44,2.72,14.23,2.72s8.59-1.21,11.41-3.63c2.81-2.42,4.22-5.53,4.22-9.35,0-2.42-.8-4.63-2.41-6.63Z"/></g><g><path class="d" d="M1306.21,540.86v.19c-35.81,2.62-64.03,32.5-64.03,68.98,0,1.33,.04,2.66,.12,3.98,0,.25,.02,.5,.05,.75-.48-.02-.94-.02-1.42-.02s-.98,0-1.47,.02c.02-.14,.02-.29,.04-.43,.19-2.1,.29-4.22,.29-6.37,0-38.2-30.96-69.16-69.16-69.16-4.09,0-8.1,.36-12,1.04,0-.82,.03-1.64,.07-2.45,36.26-2.15,65-32.24,65-69.04,0-.26,0-.51,0-.77,.37-.05,.73-.09,1.1-.12,.26,0,.52,0,.79,0,.3,0,.6,0,.9-.02-.02,.73-.04,1.46-.04,2.18,0,38.2,30.96,69.16,69.17,69.16,3.59,0,7.11-.27,10.56-.8,.03,.95,.05,1.9,.05,2.87Z"/><path class="d" d="M1311.77,514.42c-8.92-27.48-31.88-48.62-60.41-54.99,7.92,28.08,31.32,49.68,60.41,54.99Z"/><path class="d" d="M1152.96,558.39c7.13,31.14,31.89,55.55,63.22,62.18-5.84-31.84-31.2-56.85-63.22-62.18Z"/><path class="d" d="M1267.97,614.75c19.88-9.21,35.47-26.1,42.96-46.87-20.24,8.69-36.02,25.77-42.96,46.87Z"/><path class="d" d="M1198.39,465.2c-18.88,8.85-33.86,24.64-41.64,44.09,19.21-8.38,34.35-24.33,41.64-44.09Z"/></g></g></svg>